<svg id="icons" enable-background="new 0 0 64 64" height="512" viewBox="0 0 64 64" width="512" xmlns="http://www.w3.org/2000/svg"><path d="m62.999 30c0 .55-.45 1-1 1h-38c-.55 0-1-.45-1-1v-28c0-.55.45-1 1-1h38c.55 0 1 .45 1 1z" fill="#656d78"/><g fill="#e6e9ed"><path d="m39.997 13.996c-.553 0-1-.447-1-1v-3.996c0-.553.447-1 1-1s1 .447 1 1v3.996c0 .553-.447 1-1 1z"/><path d="m39.997 23.999c-.553 0-1-.447-1-1v-3.998c0-.553.447-1 1-1s1 .447 1 1v3.998c0 .553-.447 1-1 1z"/><path d="m49 17.001h-4.004c-.553 0-1-.447-1-1s.447-1 1-1h4.004c.553 0 1 .447 1 1s-.447 1-1 1z"/><path d="m54 26c-.553 0-1-.447-1-1v-6.999c0-.553.447-1 1-1s1 .447 1 1v6.999c0 .553-.447 1-1 1z"/><path d="m54 26h-9.004c-.553 0-1-.447-1-1s.447-1 1-1h9.004c.553 0 1 .447 1 1s-.447 1-1 1z"/></g><path d="m19 8.5v1.37c-1.72-2.24-2.76-2.65-4-2.39v-.01l1.99-4.06c1.25 1.34 2.01 3.12 2.01 5.09z" fill="#f6bb42"/><path d="m16.99 3.41-1.99 4.06v.01c-1.87.38-4.19 2.33-10 1.65-.32-.04-.66-.09-1-.14v-.49c0-4.14 3.36-7.5 7.5-7.5 2.17 0 4.13.93 5.49 2.41z" fill="#ffce54"/><path d="m15 18.32v2.67l-1 1-2-1-2 1-1-.99v-.01-2.67-.01c.91.44 1.93.681 3 .681s2.09-.24 3-.681z" fill="#f5f7fa"/><path d="m5 11.99v-2.86c5.81.68 8.13-1.27 10-1.649 1.24-.261 2.28.149 4 2.39v2.12.009c0 2.79-1.64 5.2-4 6.31-.91.44-1.93.681-3 .681s-2.09-.24-3-.681c-2.36-1.11-4-3.52-4-6.31z" fill="#eac6bb"/><path d="m16.998 7.855v4.135.01c0 2.79-1.64 5.2-4 6.31-.621.301-1.295.499-1.999.601.328.048.661.08 1.001.08 1.07 0 2.09-.24 3-.681 2.36-1.109 4-3.52 4-6.31v-.01-2.12c-.781-1.017-1.419-1.643-2.002-2.015z" fill="#d3b1a9"/><path d="m5 31h-4v-6c0-2.21 1.79-4 4-4h4l1 .99 2-1 2 1 1-1 8 .01h1c1.66 0 3-1.34 3-3 0-1.11.9-2 2-2s2 .89 2 2c0 3.87-3.13 7-7 7h-1-4v6z" fill="#e6e9ed"/><path d="m54 52.001c5 0 7-4 7-4 0 2.79-1.64 5.2-4 6.31-.91.44-1.92.681-3 .681-1.07 0-2.09-.24-3-.681-2.36-1.109-4-3.52-4-6.31 0 0 2 4 7 4z" fill="#eac6bb"/><path d="m58 37.001v3c1.66 0 2.99 1.33 3 2.99v.01 4.99.01s-2 4-7 4-7-4-7-4v-.01-4.99-.01c.01-3.32 2.68-5.99 6-5.99z" fill="#965353"/><path d="m58.436 50.719c-.671 1.58-1.895 2.866-3.438 3.592-.621.301-1.292.5-1.997.601.327.048.659.08.999.08 1.08 0 2.09-.24 3-.681 2.36-1.109 4-3.52 4-6.31 0 0-.775 1.548-2.564 2.718z" fill="#d3b1a9"/><path d="m58 40.001v-3h-2-.002v3h.001c.001 1.104.896 2 2.001 2 .555 0 .99.436.998.99v.01 4.99.01c0 .966-.208 1.881-.563 2.718 1.79-1.17 2.565-2.718 2.565-2.718v-.01-.991-.01-3.989-.01c-.01-1.66-1.34-2.99-3-2.99z" fill="#844747"/><path d="m54 54.991c1.08 0 2.09-.24 3-.681v.011 2.669h-6v-2.669-.011c.91.441 1.93.681 3 .681z" fill="#87bcf4"/><path d="m63 59.99v3.01h-18v-3.01c0-1.65 1.34-3 3-3v.01h3v-.01h6v.01h3v-.01c1.66 0 3 1.35 3 3z" fill="#5d9cec"/><path d="m54.998 56.99h2.002v.01h-2.002z" fill="#4a89dc"/><path d="m60 56.99v.01h-1.905c1.614.053 2.903 1.373 2.903 2.99v3.01h2.002v-3.01c0-1.65-1.34-3-3-3z" fill="#4a89dc"/><path d="m48 57v-.01c-.033 0-.063.009-.097.01z" fill="#4a89dc"/><path d="m29 56.99v-1.989h6v1.989l-3 1z" fill="#eac6bb"/><path d="m26 57h3v-.01l3 1 3-1v.01h3v-.01c1.66 0 3 1.35 3 3v3.01h-18v-3.01c0-1.65 1.34-3 3-3z" fill="#48cfad"/><path d="m38 56.99v.01h-1.905c1.614.053 2.903 1.373 2.903 2.99v3.01h2.002v-3.01c0-1.65-1.34-3-3-3z" fill="#37bc9b"/><path d="m13 56.99h-6v-2.669-.011c.91.44 1.93.681 3 .681 1.08 0 2.09-.24 3-.681v.011z" fill="#f5f7fa"/><path d="m19 59.99v3.01h-18v-3.01c0-1.65 1.34-3 3-3v.01h3v-.01h6v.01h3v-.01c1.66 0 3 1.35 3 3z" fill="#e6e9ed"/><path d="m4 57v-.01c-.033 0-.063.009-.097.01z" fill="#ccd1d9"/><path d="m16 56.99v.01h-1.905c1.614.053 2.903 1.373 2.903 2.99v3.01h2.002v-3.01c0-1.65-1.34-3-3-3z" fill="#ccd1d9"/><path d="m10 54.991c-1.07 0-2.09-.24-3-.681-2.36-1.109-4-3.52-4-6.31 0 0 2 4 7 4s7-4 7-4c0 2.79-1.64 5.2-4 6.31-.91.441-1.92.681-3 .681z" fill="#eac6bb"/><path d="m17 47.991v.01s-2 4-7 4-7-4-7-4v-.01-4c0-3.86 3.13-6.99 7-6.99s7 3.13 7 6.99z" fill="#656d78"/><path d="m14.436 50.719c-.671 1.58-1.895 2.866-3.438 3.592-.621.301-1.292.5-1.997.601.327.048.659.08.999.08 1.08 0 2.09-.24 3-.681 2.36-1.109 4-3.52 4-6.31 0 0-.775 1.548-2.564 2.718z" fill="#d3b1a9"/><path d="m10 37.001c-.339 0-.67.032-.996.079-.002 0-.003 0-.004 0 3.394.487 5.998 3.391 5.998 6.911v4 .01c0 .966-.208 1.881-.563 2.718 1.79-1.17 2.565-2.718 2.565-2.718v-.01-4c0-3.86-3.13-6.99-7-6.99z" fill="#545c66"/><path d="m5 26.001c-.553 0-1 .447-1 1v3.999h1 1v-3.999c0-.553-.447-1-1-1z" fill="#ccd1d9"/><path d="m42.996 4h-5.998c-1.654 0-3 1.346-3 3s1.346 3 3 3h5.998c1.654 0 3-1.346 3-3s-1.346-3-3-3z" fill="#fff"/><path d="m42.996 21.999h-5.998c-1.654 0-3 1.346-3 3s1.346 3 3 3h5.998c1.654 0 3-1.346 3-3s-1.346-3-3-3z" fill="#fff"/><path d="m45.511 15.144-4.999-3c-.316-.189-.713-.189-1.029 0l-4.999 3c-.301.181-.485.506-.485.857s.185.677.485.857l4.999 3c.158.095.337.143.515.143s.356-.048.515-.143l4.999-3c.301-.181.485-.506.485-.857s-.185-.677-.486-.857z" fill="#48cfad"/><path d="m59 13h-10c-.553 0-1 .447-1 1v4.001c0 .553.447 1 1 1h10c.553 0 1-.447 1-1v-4.001c0-.553-.447-1-1-1z" fill="#fff"/><path d="m32 36.041c-4.97 0-9 4.03-9 9v8.955c0 .002-.001.003-.001.005 0 .553.447 1 1 1h5.001 6 4.999.001c.553 0 1-.447 1-1v-8.96c0-4.97-4.03-9-9-9z" fill="#ffce54"/><path d="m32 36.041c-.339 0-.672.022-1.001.059 4.498.499 7.999 4.311 7.999 8.941v8.96c0 .553-.447 1-1 1h2.001.001c.553 0 1-.447 1-1v-8.96c0-4.97-4.03-9-9-9z" fill="#f6bb42"/></svg>